<svg xmlns="http://www.w3.org/2000/svg" width="916px" height="838px" viewBox="0 0 916 838" xmlns:xlink="http://www.w3.org/1999/xlink" style="overflow: auto; display: block; width: 916px; height: 838px;"><rect width="916px" height="838px" fill="white"/><defs><path fill="none" stroke="rgb(0,0,0)" d="M 5,-5 L 0,0 L 5,5" stroke-opacity="1" stroke-width="1" stroke-linecap="butt" stroke-linejoin="miter" stroke-miterlimit="10" id="ygc167_0"/></defs><g style="pointer-events:visiblePainted" transform="matrix(2.6 0 0 2.6 429 458.90000000000003)" image-rendering="auto" shape-rendering="auto"><g style="box-sizing:initial;"><g><path fill="none" stroke="rgb(0,0,0)" d="M 0.5,94.5 L 0.5,114.5 L 156,114.5 L 156,-145.5 L 0.5,-145.5 L 0.5,-127.5" stroke-opacity="1" stroke-width="0.75" stroke-linecap="butt" stroke-linejoin="miter" stroke-miterlimit="10"/><use xlink:href="#ygc167_0" transform="matrix(0 -1 1 0 0.5 -127.20710678118655)" style="pointer-events: none;"/></g><g class="uml-node" transform="translate(-135 -125.5)"><rect fill="rgb(96,125,139)" stroke="rgb(96,125,139)" stroke-opacity="1" stroke-width="2" stroke-linecap="butt" stroke-linejoin="miter" stroke-miterlimit="10" fill-opacity="1" x="0" y="0" width="271" height="220" rx="0" ry="0"/><g transform="translate(0 0)"><text font-family="Arial" font-size="12px" font-style="normal" font-weight="normal" text-decoration="none" text-anchor="middle" fill="rgb(255,255,255)" fill-opacity="1" dy="0.9166666666666666em" transform="translate(135.5 18)">DatabaseConnection</text></g><rect fill="rgb(255,255,255)" x="1" y="50" width="269" height="2"/><g transform="translate(0 52)" cursor="pointer"><rect fill="rgb(96,125,139)" stroke="none" fill-opacity="1" x="0" y="0" width="271" height="20" rx="0" ry="0"/><polygon fill="white" points="-5,-3.5 5,-3.5 0,6" transform="translate(12 10)" class="uml-button"/><g class="uml-button"><rect fill="rgb(96,125,139)" fill-opacity="1" x="234px" y="2px" width="16px" height="16px"/><path fill="white" d="M8.5,16.5c-4.418,0-8,3.582-8,8s3.582,8,8,8c4.418,0,8-3.582,8-8S12.918,16.5,8.5,16.5z M13.5,25.5h-4v4h-2v-4h-4v-2h4v-4h2v4h4V25.5z" transform="matrix(0.8 0 0 0.8 235 -10)"/></g><g class="uml-button disabled"><rect fill="rgb(96,125,139)" fill-opacity="1" x="252px" y="2px" width="16px" height="16px"/><path fill="white" fill-opacity="0.5" d="M8.5,16.5c-4.418,0-8,3.582-8,8s3.582,8,8,8c4.418,0,8-3.582,8-8S12.918,16.5,8.5,16.5z M13.5,25.5h-10v-2h10V25.5z" transform="matrix(0.8 0 0 0.8 253 -10)"/></g></g><g transform="translate(25 52)" cursor="pointer"><text font-family="Arial" font-size="12px" font-style="normal" font-weight="normal" text-decoration="none" text-anchor="start" fill="rgb(255,255,255)" fill-opacity="1" dy="0.9166666666666666em" transform="translate(0 3)">Attributes</text></g><rect fill="rgb(255,255,255)" x="1" y="72" width="269" height="80"/><g transform="translate(25 72)"><text font-family="Arial" font-size="12px" font-style="normal" font-weight="normal" text-decoration="none" text-anchor="start" fill="rgb(0,0,0)" fill-opacity="1" dy="0.9166666666666666em" transform="translate(0 1)">- username: String</text></g><g transform="translate(25 88)"><text font-family="Arial" font-size="12px" font-style="normal" font-weight="normal" text-decoration="none" text-anchor="start" fill="rgb(0,0,0)" fill-opacity="1" dy="0.9166666666666666em" transform="translate(0 1)">- instance: DatabaseConnection</text></g><g transform="translate(25 104)"><text font-family="Arial" font-size="12px" font-style="normal" font-weight="normal" text-decoration="none" text-anchor="start" fill="rgb(0,0,0)" fill-opacity="1" dy="0.9166666666666666em" transform="translate(0 1)">- url: String</text></g><g transform="translate(25 120)"><text font-family="Arial" font-size="12px" font-style="normal" font-weight="normal" text-decoration="none" text-anchor="start" fill="rgb(0,0,0)" fill-opacity="1" dy="0.9166666666666666em" transform="translate(0 1)">- connection: Connection</text></g><g transform="translate(25 136)"><text font-family="Arial" font-size="12px" font-style="normal" font-weight="normal" text-decoration="none" text-anchor="start" fill="rgb(0,0,0)" fill-opacity="1" dy="0.9166666666666666em" transform="translate(0 1)">- password: String</text></g><g transform="translate(0 152)" cursor="pointer"><rect fill="rgb(96,125,139)" stroke="none" fill-opacity="1" x="0" y="0" width="271" height="20" rx="0" ry="0"/><polygon fill="white" points="-5,-3.5 5,-3.5 0,6" transform="translate(12 10)" class="uml-button"/><g class="uml-button"><rect fill="rgb(96,125,139)" fill-opacity="1" x="234px" y="2px" width="16px" height="16px"/><path fill="white" d="M8.5,16.5c-4.418,0-8,3.582-8,8s3.582,8,8,8c4.418,0,8-3.582,8-8S12.918,16.5,8.5,16.5z M13.5,25.5h-4v4h-2v-4h-4v-2h4v-4h2v4h4V25.5z" transform="matrix(0.8 0 0 0.8 235 -10)"/></g><g class="uml-button disabled"><rect fill="rgb(96,125,139)" fill-opacity="1" x="252px" y="2px" width="16px" height="16px"/><path fill="white" fill-opacity="0.5" d="M8.5,16.5c-4.418,0-8,3.582-8,8s3.582,8,8,8c4.418,0,8-3.582,8-8S12.918,16.5,8.5,16.5z M13.5,25.5h-10v-2h10V25.5z" transform="matrix(0.8 0 0 0.8 253 -10)"/></g></g><g transform="translate(25 152)" cursor="pointer"><text font-family="Arial" font-size="12px" font-style="normal" font-weight="normal" text-decoration="none" text-anchor="start" fill="rgb(255,255,255)" fill-opacity="1" dy="0.9166666666666666em" transform="translate(0 3)">Operations</text></g><rect fill="rgb(255,255,255)" x="1" y="172" width="269" height="48"/><g transform="translate(25 172)"><text font-family="Arial" font-size="12px" font-style="normal" font-weight="normal" text-decoration="none" text-anchor="start" fill="rgb(0,0,0)" fill-opacity="1" dy="0.9166666666666666em" transform="translate(0 1)">- DatabaseConnection():</text></g><g transform="translate(25 188)"><text font-family="Arial" font-size="12px" font-style="normal" font-weight="normal" text-decoration="none" text-anchor="start" fill="rgb(0,0,0)" fill-opacity="1" dy="0.9166666666666666em" transform="translate(0 1)">+ getConnection(): Connection</text></g><g transform="translate(25 204)"><text font-family="Arial" font-size="12px" font-style="normal" font-weight="normal" text-decoration="none" text-anchor="start" fill="rgb(0,0,0)" fill-opacity="1" dy="0.9166666666666666em" transform="translate(0 1)">+ getInstance(): DatabaseConnection</text></g><rect fill="rgb(255,255,255)" x="1" y="220" width="269" height="0"/></g></g></g></svg>