<svg xmlns="http://www.w3.org/2000/svg" width="971px" height="714px" viewBox="0 0 971 714" xmlns:xlink="http://www.w3.org/1999/xlink" style="overflow: auto; display: block; width: 971px; height: 714px;"><rect width="971px" height="714px" fill="white"/><clipPath id="ygc115_1"><rect x="25" y="25" width="920.475" height="663.3"/></clipPath><g clip-path="url(#ygc115_1)"><g style="pointer-events:visiblePainted" transform="matrix(1.8 0 0 1.8 189.475 74.725)" image-rendering="auto" shape-rendering="auto"><g style="box-sizing:initial;"><g><path fill="none" stroke="rgb(0,0,0)" d="M 153.25,106.375 L 153.25,273.875 L 84.625,273.875" stroke-opacity="1" stroke-width="1" stroke-linecap="butt" stroke-linejoin="miter" stroke-miterlimit="10"/><g/><use xlink:href="#ygc115_0" transform="matrix(0 1 -1 0 153.25 102.08210678118655)" style="pointer-events: none;"/></g><g><path fill="none" stroke="rgb(0,0,0)" d="M 153.25,106.375 L 153.25,273.875 L 244,273.875" stroke-opacity="1" stroke-width="1" stroke-linecap="butt" stroke-linejoin="miter" stroke-miterlimit="10"/><g/><use xlink:href="#ygc115_0" transform="matrix(0 1 -1 0 153.25 102.08210678118655)" style="pointer-events: none;"/></g><g class="uml-node" transform="translate(-86.375 211.875)"><rect fill="rgb(96,125,139)" stroke="rgb(96,125,139)" stroke-opacity="1" stroke-width="2" stroke-linecap="butt" stroke-linejoin="miter" stroke-miterlimit="10" fill-opacity="1" x="0" y="0" width="171" height="124" rx="0" ry="0"/><g transform="translate(0 0)"><text font-family="Arial" font-size="12px" font-style="normal" font-weight="normal" text-decoration="none" text-anchor="middle" fill="rgb(255,255,255)" fill-opacity="1" dy="0.9166666666666666em" transform="translate(85.5 18)">Adicao</text></g><rect fill="rgb(255,255,255)" x="1" y="50" width="169" height="2"/><g transform="translate(0 52)" cursor="pointer"><rect fill="rgb(96,125,139)" stroke="none" fill-opacity="1" x="0" y="0" width="171" height="20" rx="0" ry="0"/><polygon fill="white" points="-5,-3.5 5,-3.5 0,6" transform="translate(12 10)" class="uml-button"/><g class="uml-button"><rect fill="rgb(96,125,139)" fill-opacity="1" x="134px" y="2px" width="16px" height="16px"/><path fill="white" d="M8.5,16.5c-4.418,0-8,3.582-8,8s3.582,8,8,8c4.418,0,8-3.582,8-8S12.918,16.5,8.5,16.5z M13.5,25.5h-4v4h-2v-4h-4v-2h4v-4h2v4h4V25.5z" transform="matrix(0.8 0 0 0.8 135 -10)"/></g><g class="uml-button disabled"><rect fill="rgb(96,125,139)" fill-opacity="1" x="152px" y="2px" width="16px" height="16px"/><path fill="white" fill-opacity="0.5" d="M8.5,16.5c-4.418,0-8,3.582-8,8s3.582,8,8,8c4.418,0,8-3.582,8-8S12.918,16.5,8.5,16.5z M13.5,25.5h-10v-2h10V25.5z" transform="matrix(0.8 0 0 0.8 153 -10)"/></g></g><g transform="translate(25 52)" cursor="pointer"><text font-family="Arial" font-size="12px" font-style="normal" font-weight="normal" text-decoration="none" text-anchor="start" fill="rgb(255,255,255)" fill-opacity="1" dy="0.9166666666666666em" transform="translate(0 3)">Attributes</text></g><rect fill="rgb(255,255,255)" x="1" y="72" width="169" height="0"/><g transform="translate(0 72)" cursor="pointer"><rect fill="rgb(96,125,139)" stroke="none" fill-opacity="1" x="0" y="0" width="171" height="20" rx="0" ry="0"/><polygon fill="white" points="-5,-3.5 5,-3.5 0,6" transform="translate(12 10)" class="uml-button"/><g class="uml-button"><rect fill="rgb(96,125,139)" fill-opacity="1" x="134px" y="2px" width="16px" height="16px"/><path fill="white" d="M8.5,16.5c-4.418,0-8,3.582-8,8s3.582,8,8,8c4.418,0,8-3.582,8-8S12.918,16.5,8.5,16.5z M13.5,25.5h-4v4h-2v-4h-4v-2h4v-4h2v4h4V25.5z" transform="matrix(0.8 0 0 0.8 135 -10)"/></g><g class="uml-button disabled"><rect fill="rgb(96,125,139)" fill-opacity="1" x="152px" y="2px" width="16px" height="16px"/><path fill="white" fill-opacity="0.5" d="M8.5,16.5c-4.418,0-8,3.582-8,8s3.582,8,8,8c4.418,0,8-3.582,8-8S12.918,16.5,8.5,16.5z M13.5,25.5h-10v-2h10V25.5z" transform="matrix(0.8 0 0 0.8 153 -10)"/></g></g><g transform="translate(25 72)" cursor="pointer"><text font-family="Arial" font-size="12px" font-style="normal" font-weight="normal" text-decoration="none" text-anchor="start" fill="rgb(255,255,255)" fill-opacity="1" dy="0.9166666666666666em" transform="translate(0 3)">Operations</text></g><rect fill="rgb(255,255,255)" x="1" y="92" width="169" height="32"/><g transform="translate(25 92)"><text font-family="Arial" font-size="12px" font-style="normal" font-weight="normal" text-decoration="none" text-anchor="start" fill="rgb(0,0,0)" fill-opacity="1" dy="0.9166666666666666em" transform="translate(0 1)">+ Adicao():</text></g><g transform="translate(25 108)"><text font-family="Arial" font-size="12px" font-style="normal" font-weight="normal" text-decoration="none" text-anchor="start" fill="rgb(0,0,0)" fill-opacity="1" dy="0.9166666666666666em" transform="translate(0 1)">+ calcular(int, int): int</text></g><rect fill="rgb(255,255,255)" x="1" y="124" width="169" height="0"/></g><g class="uml-node" transform="translate(67.75 -22.625)"><rect fill="rgb(96,125,139)" stroke="rgb(96,125,139)" stroke-opacity="1" stroke-width="2" stroke-linecap="butt" stroke-linejoin="miter" stroke-miterlimit="10" fill-opacity="1" x="0" y="0" width="171" height="124" rx="0" ry="0"/><g transform="translate(0 0)"><text font-family="Arial" font-size="12px" font-style="normal" font-weight="normal" text-decoration="none" text-anchor="middle" fill="rgb(255,255,255)" fill-opacity="1" dy="0.9166666666666666em" transform="translate(85.5 18)">Calculadora</text></g><rect fill="rgb(255,255,255)" x="1" y="50" width="169" height="2"/><g transform="translate(0 52)" cursor="pointer"><rect fill="rgb(96,125,139)" stroke="none" fill-opacity="1" x="0" y="0" width="171" height="20" rx="0" ry="0"/><polygon fill="white" points="-5,-3.5 5,-3.5 0,6" transform="translate(12 10)" class="uml-button"/><g class="uml-button"><rect fill="rgb(96,125,139)" fill-opacity="1" x="134px" y="2px" width="16px" height="16px"/><path fill="white" d="M8.5,16.5c-4.418,0-8,3.582-8,8s3.582,8,8,8c4.418,0,8-3.582,8-8S12.918,16.5,8.5,16.5z M13.5,25.5h-4v4h-2v-4h-4v-2h4v-4h2v4h4V25.5z" transform="matrix(0.8 0 0 0.8 135 -10)"/></g><g class="uml-button disabled"><rect fill="rgb(96,125,139)" fill-opacity="1" x="152px" y="2px" width="16px" height="16px"/><path fill="white" fill-opacity="0.5" d="M8.5,16.5c-4.418,0-8,3.582-8,8s3.582,8,8,8c4.418,0,8-3.582,8-8S12.918,16.5,8.5,16.5z M13.5,25.5h-10v-2h10V25.5z" transform="matrix(0.8 0 0 0.8 153 -10)"/></g></g><g transform="translate(25 52)" cursor="pointer"><text font-family="Arial" font-size="12px" font-style="normal" font-weight="normal" text-decoration="none" text-anchor="start" fill="rgb(255,255,255)" fill-opacity="1" dy="0.9166666666666666em" transform="translate(0 3)">Attributes</text></g><rect fill="rgb(255,255,255)" x="1" y="72" width="169" height="0"/><g transform="translate(0 72)" cursor="pointer"><rect fill="rgb(96,125,139)" stroke="none" fill-opacity="1" x="0" y="0" width="171" height="20" rx="0" ry="0"/><polygon fill="white" points="-5,-3.5 5,-3.5 0,6" transform="translate(12 10)" class="uml-button"/><g class="uml-button"><rect fill="rgb(96,125,139)" fill-opacity="1" x="134px" y="2px" width="16px" height="16px"/><path fill="white" d="M8.5,16.5c-4.418,0-8,3.582-8,8s3.582,8,8,8c4.418,0,8-3.582,8-8S12.918,16.5,8.5,16.5z M13.5,25.5h-4v4h-2v-4h-4v-2h4v-4h2v4h4V25.5z" transform="matrix(0.8 0 0 0.8 135 -10)"/></g><g class="uml-button disabled"><rect fill="rgb(96,125,139)" fill-opacity="1" x="152px" y="2px" width="16px" height="16px"/><path fill="white" fill-opacity="0.5" d="M8.5,16.5c-4.418,0-8,3.582-8,8s3.582,8,8,8c4.418,0,8-3.582,8-8S12.918,16.5,8.5,16.5z M13.5,25.5h-10v-2h10V25.5z" transform="matrix(0.8 0 0 0.8 153 -10)"/></g></g><g transform="translate(25 72)" cursor="pointer"><text font-family="Arial" font-size="12px" font-style="normal" font-weight="normal" text-decoration="none" text-anchor="start" fill="rgb(255,255,255)" fill-opacity="1" dy="0.9166666666666666em" transform="translate(0 3)">Operations</text></g><rect fill="rgb(255,255,255)" x="1" y="92" width="169" height="32"/><g transform="translate(25 92)"><text font-family="Arial" font-size="12px" font-style="normal" font-weight="normal" text-decoration="none" text-anchor="start" fill="rgb(0,0,0)" fill-opacity="1" dy="0.9166666666666666em" transform="translate(0 1)">+ Calculadora():</text></g><g transform="translate(25 108)"><text font-family="Arial" font-size="12px" font-style="normal" font-weight="normal" text-decoration="none" text-anchor="start" fill="rgb(0,0,0)" fill-opacity="1" dy="0.9166666666666666em" transform="translate(0 1)">+ calcular(int, int): int</text></g><rect fill="rgb(255,255,255)" x="1" y="124" width="169" height="0"/></g><g class="uml-node" transform="translate(244 211.875)"><rect fill="rgb(96,125,139)" stroke="rgb(96,125,139)" stroke-opacity="1" stroke-width="2" stroke-linecap="butt" stroke-linejoin="miter" stroke-miterlimit="10" fill-opacity="1" x="0" y="0" width="171" height="124" rx="0" ry="0"/><g transform="translate(0 0)"><text font-family="Arial" font-size="12px" font-style="normal" font-weight="normal" text-decoration="none" text-anchor="middle" fill="rgb(255,255,255)" fill-opacity="1" dy="0.9166666666666666em" transform="translate(85.5 18)">Subtracao</text></g><rect fill="rgb(255,255,255)" x="1" y="50" width="169" height="2"/><g transform="translate(0 52)" cursor="pointer"><rect fill="rgb(96,125,139)" stroke="none" fill-opacity="1" x="0" y="0" width="171" height="20" rx="0" ry="0"/><polygon fill="white" points="-5,-3.5 5,-3.5 0,6" transform="translate(12 10)" class="uml-button"/><g class="uml-button"><rect fill="rgb(96,125,139)" fill-opacity="1" x="134px" y="2px" width="16px" height="16px"/><path fill="white" d="M8.5,16.5c-4.418,0-8,3.582-8,8s3.582,8,8,8c4.418,0,8-3.582,8-8S12.918,16.5,8.5,16.5z M13.5,25.5h-4v4h-2v-4h-4v-2h4v-4h2v4h4V25.5z" transform="matrix(0.8 0 0 0.8 135 -10)"/></g><g class="uml-button disabled"><rect fill="rgb(96,125,139)" fill-opacity="1" x="152px" y="2px" width="16px" height="16px"/><path fill="white" fill-opacity="0.5" d="M8.5,16.5c-4.418,0-8,3.582-8,8s3.582,8,8,8c4.418,0,8-3.582,8-8S12.918,16.5,8.5,16.5z M13.5,25.5h-10v-2h10V25.5z" transform="matrix(0.8 0 0 0.8 153 -10)"/></g></g><g transform="translate(25 52)" cursor="pointer"><text font-family="Arial" font-size="12px" font-style="normal" font-weight="normal" text-decoration="none" text-anchor="start" fill="rgb(255,255,255)" fill-opacity="1" dy="0.9166666666666666em" transform="translate(0 3)">Attributes</text></g><rect fill="rgb(255,255,255)" x="1" y="72" width="169" height="0"/><g transform="translate(0 72)" cursor="pointer"><rect fill="rgb(96,125,139)" stroke="none" fill-opacity="1" x="0" y="0" width="171" height="20" rx="0" ry="0"/><polygon fill="white" points="-5,-3.5 5,-3.5 0,6" transform="translate(12 10)" class="uml-button"/><g class="uml-button"><rect fill="rgb(96,125,139)" fill-opacity="1" x="134px" y="2px" width="16px" height="16px"/><path fill="white" d="M8.5,16.5c-4.418,0-8,3.582-8,8s3.582,8,8,8c4.418,0,8-3.582,8-8S12.918,16.5,8.5,16.5z M13.5,25.5h-4v4h-2v-4h-4v-2h4v-4h2v4h4V25.5z" transform="matrix(0.8 0 0 0.8 135 -10)"/></g><g class="uml-button disabled"><rect fill="rgb(96,125,139)" fill-opacity="1" x="152px" y="2px" width="16px" height="16px"/><path fill="white" fill-opacity="0.5" d="M8.5,16.5c-4.418,0-8,3.582-8,8s3.582,8,8,8c4.418,0,8-3.582,8-8S12.918,16.5,8.5,16.5z M13.5,25.5h-10v-2h10V25.5z" transform="matrix(0.8 0 0 0.8 153 -10)"/></g></g><g transform="translate(25 72)" cursor="pointer"><text font-family="Arial" font-size="12px" font-style="normal" font-weight="normal" text-decoration="none" text-anchor="start" fill="rgb(255,255,255)" fill-opacity="1" dy="0.9166666666666666em" transform="translate(0 3)">Operations</text></g><rect fill="rgb(255,255,255)" x="1" y="92" width="169" height="32"/><g transform="translate(25 92)"><text font-family="Arial" font-size="12px" font-style="normal" font-weight="normal" text-decoration="none" text-anchor="start" fill="rgb(0,0,0)" fill-opacity="1" dy="0.9166666666666666em" transform="translate(0 1)">+ Subtracao():</text></g><g transform="translate(25 108)"><text font-family="Arial" font-size="12px" font-style="normal" font-weight="normal" text-decoration="none" text-anchor="start" fill="rgb(0,0,0)" fill-opacity="1" dy="0.9166666666666666em" transform="translate(0 1)">+ calcular(int, int): int</text></g><rect fill="rgb(255,255,255)" x="1" y="124" width="169" height="0"/></g></g></g></g><defs><path fill="rgb(255,255,255)" stroke="rgb(0,0,0)" d="M 5,-5 L 0,0 L 5,5 Z" fill-opacity="1" stroke-opacity="1" stroke-width="1" stroke-linecap="butt" stroke-linejoin="miter" stroke-miterlimit="10" id="ygc115_0"/></defs></svg>