<svg xmlns="http://www.w3.org/2000/svg" width="929px" height="401px" viewBox="0 0 929 401" xmlns:xlink="http://www.w3.org/1999/xlink" style="overflow: auto; display: block; width: 929px; height: 401px;"><rect width="929px" height="401px" fill="white"/><defs><path fill="none" stroke="rgb(0,0,0)" d="M 5,-5 L 0,0 L 5,5" stroke-opacity="1" stroke-width="1" stroke-linecap="butt" stroke-linejoin="miter" stroke-miterlimit="10" id="ygc286_0"/><path fill="rgb(0,0,0)" stroke="rgb(0,0,0)" d="M 0,0 L 5,-3 L 10,0 L 5,3 Z" fill-opacity="1" stroke-opacity="1" stroke-width="1" stroke-linecap="butt" stroke-linejoin="miter" stroke-miterlimit="10" id="ygc286_1"/><path fill="rgb(255,255,255)" stroke="rgb(0,0,0)" d="M 5,-5 L 0,0 L 5,5 Z" fill-opacity="1" stroke-opacity="1" stroke-width="1" stroke-linecap="butt" stroke-linejoin="miter" stroke-miterlimit="10" id="ygc286_2"/></defs><g style="pointer-events:visiblePainted" transform="matrix(0.9 0 0 0.9 331.5375 -9.450000000000001)" image-rendering="auto" shape-rendering="auto"><g style="box-sizing:initial;"><g><path fill="none" stroke="rgb(0,0,0)" d="M -173.125,76.75 L -173.125,41.25 L 168.75,41.25 L 168.75,109.75" stroke-opacity="1" stroke-width="0.75" stroke-linecap="butt" stroke-linejoin="miter" stroke-miterlimit="10"/><use xlink:href="#ygc286_0" transform="matrix(0 -1 1 0 168.75 110.04289321881345)" style="pointer-events: none;"/><use xlink:href="#ygc286_1" transform="matrix(0 -1 1 0 -173.125 85.75)" style="pointer-events: none;"/></g><g><path fill="none" stroke="rgb(0,0,0)" d="M 27.75,165.75 L -23.625,165.75" stroke-opacity="1" stroke-width="1" stroke-dasharray="2,2" stroke-dashoffset="1" stroke-linecap="butt" stroke-linejoin="miter" stroke-miterlimit="10"/><g/><use xlink:href="#ygc286_2" transform="matrix(-1 0 0 -1 32.042893218813454 165.75)" style="pointer-events: none;"/></g><g><path fill="none" stroke="rgb(0,0,0)" d="M 168.75,224.75 L 168.75,269.5" stroke-opacity="1" stroke-width="1" stroke-dasharray="2,2" stroke-dashoffset="1" stroke-linecap="butt" stroke-linejoin="miter" stroke-miterlimit="10"/><g/><use xlink:href="#ygc286_2" transform="matrix(0 1 -1 0 168.75 220.45710678118655)" style="pointer-events: none;"/></g><g><path fill="none" stroke="rgb(0,0,0)" d="M 309.75,165.75 L 497.125,165.75 L 497.125,269.5" stroke-opacity="1" stroke-width="1" stroke-dasharray="2,2" stroke-dashoffset="1" stroke-linecap="butt" stroke-linejoin="miter" stroke-miterlimit="10"/><g/><use xlink:href="#ygc286_2" transform="translate(305.45710678118655 165.75)" style="pointer-events: none;"/></g><g class="uml-node" transform="translate(-322.625 87.75)"><rect fill="rgb(96,125,139)" stroke="rgb(96,125,139)" stroke-opacity="1" stroke-width="2" stroke-linecap="butt" stroke-linejoin="miter" stroke-miterlimit="10" fill-opacity="1" x="0" y="0" width="299" height="156" rx="0" ry="0"/><g transform="translate(0 0)"><text font-family="Arial" font-size="12px" font-style="normal" font-weight="normal" text-decoration="none" text-anchor="middle" fill="rgb(255,255,255)" fill-opacity="1" dy="0.9166666666666666em" transform="translate(149.5 18)">Empresa</text></g><rect fill="rgb(255,255,255)" x="1" y="50" width="297" height="2"/><g transform="translate(0 52)" cursor="pointer"><rect fill="rgb(96,125,139)" stroke="none" fill-opacity="1" x="0" y="0" width="299" height="20" rx="0" ry="0"/><polygon fill="white" points="-5,-3.5 5,-3.5 0,6" transform="translate(12 10)" class="uml-button"/><g class="uml-button"><rect fill="rgb(96,125,139)" fill-opacity="1" x="262px" y="2px" width="16px" height="16px"/><path fill="white" d="M8.5,16.5c-4.418,0-8,3.582-8,8s3.582,8,8,8c4.418,0,8-3.582,8-8S12.918,16.5,8.5,16.5z M13.5,25.5h-4v4h-2v-4h-4v-2h4v-4h2v4h4V25.5z" transform="matrix(0.8 0 0 0.8 263 -10)"/></g><g class="uml-button disabled"><rect fill="rgb(96,125,139)" fill-opacity="1" x="280px" y="2px" width="16px" height="16px"/><path fill="white" fill-opacity="0.5" d="M8.5,16.5c-4.418,0-8,3.582-8,8s3.582,8,8,8c4.418,0,8-3.582,8-8S12.918,16.5,8.5,16.5z M13.5,25.5h-10v-2h10V25.5z" transform="matrix(0.8 0 0 0.8 281 -10)"/></g></g><g transform="translate(25 52)" cursor="pointer"><text font-family="Arial" font-size="12px" font-style="normal" font-weight="normal" text-decoration="none" text-anchor="start" fill="rgb(255,255,255)" fill-opacity="1" dy="0.9166666666666666em" transform="translate(0 3)">Attributes</text></g><rect fill="rgb(255,255,255)" x="1" y="72" width="297" height="16"/><g transform="translate(25 72)"><text font-family="Arial" font-size="12px" font-style="normal" font-weight="normal" text-decoration="none" text-anchor="start" fill="rgb(0,0,0)" fill-opacity="1" dy="0.9166666666666666em" transform="translate(0 1)">- funcionarios: List&lt;Funcionario&gt;</text></g><g transform="translate(0 88)" cursor="pointer"><rect fill="rgb(96,125,139)" stroke="none" fill-opacity="1" x="0" y="0" width="299" height="20" rx="0" ry="0"/><polygon fill="white" points="-5,-3.5 5,-3.5 0,6" transform="translate(12 10)" class="uml-button"/><g class="uml-button"><rect fill="rgb(96,125,139)" fill-opacity="1" x="262px" y="2px" width="16px" height="16px"/><path fill="white" d="M8.5,16.5c-4.418,0-8,3.582-8,8s3.582,8,8,8c4.418,0,8-3.582,8-8S12.918,16.5,8.5,16.5z M13.5,25.5h-4v4h-2v-4h-4v-2h4v-4h2v4h4V25.5z" transform="matrix(0.8 0 0 0.8 263 -10)"/></g><g class="uml-button disabled"><rect fill="rgb(96,125,139)" fill-opacity="1" x="280px" y="2px" width="16px" height="16px"/><path fill="white" fill-opacity="0.5" d="M8.5,16.5c-4.418,0-8,3.582-8,8s3.582,8,8,8c4.418,0,8-3.582,8-8S12.918,16.5,8.5,16.5z M13.5,25.5h-10v-2h10V25.5z" transform="matrix(0.8 0 0 0.8 281 -10)"/></g></g><g transform="translate(25 88)" cursor="pointer"><text font-family="Arial" font-size="12px" font-style="normal" font-weight="normal" text-decoration="none" text-anchor="start" fill="rgb(255,255,255)" fill-opacity="1" dy="0.9166666666666666em" transform="translate(0 3)">Operations</text></g><rect fill="rgb(255,255,255)" x="1" y="108" width="297" height="48"/><g transform="translate(25 108)"><text font-family="Arial" font-size="12px" font-style="normal" font-weight="normal" text-decoration="none" text-anchor="start" fill="rgb(0,0,0)" fill-opacity="1" dy="0.9166666666666666em" transform="translate(0 1)">+ Empresa():</text></g><g transform="translate(25 124)"><text font-family="Arial" font-size="12px" font-style="normal" font-weight="normal" text-decoration="none" text-anchor="start" fill="rgb(0,0,0)" fill-opacity="1" dy="0.9166666666666666em" transform="translate(0 1)">+ mostrarDetalhesFuncionario(): void</text></g><g transform="translate(25 140)"><text font-family="Arial" font-size="12px" font-style="normal" font-weight="normal" text-decoration="none" text-anchor="start" fill="rgb(0,0,0)" fill-opacity="1" dy="0.9166666666666666em" transform="translate(0 1)">+ adicionarFuncionario(Funcionario): void</text></g><rect fill="rgb(255,255,255)" x="1" y="156" width="297" height="0"/></g><g class="uml-node" transform="translate(32.75 111.75)"><rect fill="rgb(76,175,80)" stroke="rgb(76,175,80)" stroke-opacity="1" stroke-width="2" stroke-linecap="butt" stroke-linejoin="miter" stroke-miterlimit="10" fill-opacity="1" x="0" y="0" width="272" height="108" rx="0" ry="0"/><g transform="translate(0 0)"><text font-family="Arial" font-size="12px" font-style="normal" font-weight="normal" text-decoration="none" text-anchor="middle" fill="rgb(255,255,255)" fill-opacity="1" dy="0.9166666666666666em" transform="translate(136 18)">Funcionario</text></g><g transform="translate(0 5)"><text font-family="Arial" font-size="10px" font-style="italic" font-weight="normal" text-decoration="none" text-anchor="middle" fill="rgb(255,255,255)" fill-opacity="1" dy="0.9em" transform="translate(136 0)">&lt;&lt;interface&gt;&gt;</text></g><rect fill="rgb(255,255,255)" x="1" y="50" width="270" height="2"/><g transform="translate(0 52)" cursor="pointer"><rect fill="rgb(76,175,80)" stroke="none" fill-opacity="1" x="0" y="0" width="272" height="20" rx="0" ry="0"/><polygon fill="white" points="-5,-3.5 5,-3.5 0,6" transform="translate(12 10)" class="uml-button"/><g class="uml-button"><rect fill="rgb(76,175,80)" fill-opacity="1" x="235px" y="2px" width="16px" height="16px"/><path fill="white" d="M8.5,16.5c-4.418,0-8,3.582-8,8s3.582,8,8,8c4.418,0,8-3.582,8-8S12.918,16.5,8.5,16.5z M13.5,25.5h-4v4h-2v-4h-4v-2h4v-4h2v4h4V25.5z" transform="matrix(0.8 0 0 0.8 236 -10)"/></g><g class="uml-button disabled"><rect fill="rgb(76,175,80)" fill-opacity="1" x="253px" y="2px" width="16px" height="16px"/><path fill="white" fill-opacity="0.5" d="M8.5,16.5c-4.418,0-8,3.582-8,8s3.582,8,8,8c4.418,0,8-3.582,8-8S12.918,16.5,8.5,16.5z M13.5,25.5h-10v-2h10V25.5z" transform="matrix(0.8 0 0 0.8 254 -10)"/></g></g><g transform="translate(25 52)" cursor="pointer"><text font-family="Arial" font-size="12px" font-style="normal" font-weight="normal" text-decoration="none" text-anchor="start" fill="rgb(255,255,255)" fill-opacity="1" dy="0.9166666666666666em" transform="translate(0 3)">Attributes</text></g><rect fill="rgb(255,255,255)" x="1" y="72" width="270" height="0"/><g transform="translate(0 72)" cursor="pointer"><rect fill="rgb(76,175,80)" stroke="none" fill-opacity="1" x="0" y="0" width="272" height="20" rx="0" ry="0"/><polygon fill="white" points="-5,-3.5 5,-3.5 0,6" transform="translate(12 10)" class="uml-button"/><g class="uml-button"><rect fill="rgb(76,175,80)" fill-opacity="1" x="235px" y="2px" width="16px" height="16px"/><path fill="white" d="M8.5,16.5c-4.418,0-8,3.582-8,8s3.582,8,8,8c4.418,0,8-3.582,8-8S12.918,16.5,8.5,16.5z M13.5,25.5h-4v4h-2v-4h-4v-2h4v-4h2v4h4V25.5z" transform="matrix(0.8 0 0 0.8 236 -10)"/></g><g class="uml-button disabled"><rect fill="rgb(76,175,80)" fill-opacity="1" x="253px" y="2px" width="16px" height="16px"/><path fill="white" fill-opacity="0.5" d="M8.5,16.5c-4.418,0-8,3.582-8,8s3.582,8,8,8c4.418,0,8-3.582,8-8S12.918,16.5,8.5,16.5z M13.5,25.5h-10v-2h10V25.5z" transform="matrix(0.8 0 0 0.8 254 -10)"/></g></g><g transform="translate(25 72)" cursor="pointer"><text font-family="Arial" font-size="12px" font-style="normal" font-weight="normal" text-decoration="none" text-anchor="start" fill="rgb(255,255,255)" fill-opacity="1" dy="0.9166666666666666em" transform="translate(0 3)">Operations</text></g><rect fill="rgb(255,255,255)" x="1" y="92" width="270" height="16"/><g transform="translate(25 92)"><text font-family="Arial" font-size="12px" font-style="normal" font-weight="normal" text-decoration="none" text-anchor="start" fill="rgb(0,0,0)" fill-opacity="1" dy="0.9166666666666666em" transform="translate(0 1)">+ mostrarDetalhesFuncionario(): void</text></g><rect fill="rgb(255,255,255)" x="1" y="108" width="270" height="0"/></g><g class="uml-node" transform="translate(361.125 269.5)"><rect fill="rgb(96,125,139)" stroke="rgb(96,125,139)" stroke-opacity="1" stroke-width="2" stroke-linecap="butt" stroke-linejoin="miter" stroke-miterlimit="10" fill-opacity="1" x="0" y="0" width="272" height="156" rx="0" ry="0"/><g transform="translate(0 0)"><text font-family="Arial" font-size="12px" font-style="normal" font-weight="normal" text-decoration="none" text-anchor="middle" fill="rgb(255,255,255)" fill-opacity="1" dy="0.9166666666666666em" transform="translate(136 18)">Gerente</text></g><rect fill="rgb(255,255,255)" x="1" y="50" width="270" height="2"/><g transform="translate(0 52)" cursor="pointer"><rect fill="rgb(96,125,139)" stroke="none" fill-opacity="1" x="0" y="0" width="272" height="20" rx="0" ry="0"/><polygon fill="white" points="-5,-3.5 5,-3.5 0,6" transform="translate(12 10)" class="uml-button"/><g class="uml-button"><rect fill="rgb(96,125,139)" fill-opacity="1" x="235px" y="2px" width="16px" height="16px"/><path fill="white" d="M8.5,16.5c-4.418,0-8,3.582-8,8s3.582,8,8,8c4.418,0,8-3.582,8-8S12.918,16.5,8.5,16.5z M13.5,25.5h-4v4h-2v-4h-4v-2h4v-4h2v4h4V25.5z" transform="matrix(0.8 0 0 0.8 236 -10)"/></g><g class="uml-button disabled"><rect fill="rgb(96,125,139)" fill-opacity="1" x="253px" y="2px" width="16px" height="16px"/><path fill="white" fill-opacity="0.5" d="M8.5,16.5c-4.418,0-8,3.582-8,8s3.582,8,8,8c4.418,0,8-3.582,8-8S12.918,16.5,8.5,16.5z M13.5,25.5h-10v-2h10V25.5z" transform="matrix(0.8 0 0 0.8 254 -10)"/></g></g><g transform="translate(25 52)" cursor="pointer"><text font-family="Arial" font-size="12px" font-style="normal" font-weight="normal" text-decoration="none" text-anchor="start" fill="rgb(255,255,255)" fill-opacity="1" dy="0.9166666666666666em" transform="translate(0 3)">Attributes</text></g><rect fill="rgb(255,255,255)" x="1" y="72" width="270" height="32"/><g transform="translate(25 72)"><text font-family="Arial" font-size="12px" font-style="normal" font-weight="normal" text-decoration="none" text-anchor="start" fill="rgb(0,0,0)" fill-opacity="1" dy="0.9166666666666666em" transform="translate(0 1)">- cargo: String</text></g><g transform="translate(25 88)"><text font-family="Arial" font-size="12px" font-style="normal" font-weight="normal" text-decoration="none" text-anchor="start" fill="rgb(0,0,0)" fill-opacity="1" dy="0.9166666666666666em" transform="translate(0 1)">- nome: String</text></g><g transform="translate(0 104)" cursor="pointer"><rect fill="rgb(96,125,139)" stroke="none" fill-opacity="1" x="0" y="0" width="272" height="20" rx="0" ry="0"/><polygon fill="white" points="-5,-3.5 5,-3.5 0,6" transform="translate(12 10)" class="uml-button"/><g class="uml-button"><rect fill="rgb(96,125,139)" fill-opacity="1" x="235px" y="2px" width="16px" height="16px"/><path fill="white" d="M8.5,16.5c-4.418,0-8,3.582-8,8s3.582,8,8,8c4.418,0,8-3.582,8-8S12.918,16.5,8.5,16.5z M13.5,25.5h-4v4h-2v-4h-4v-2h4v-4h2v4h4V25.5z" transform="matrix(0.8 0 0 0.8 236 -10)"/></g><g class="uml-button disabled"><rect fill="rgb(96,125,139)" fill-opacity="1" x="253px" y="2px" width="16px" height="16px"/><path fill="white" fill-opacity="0.5" d="M8.5,16.5c-4.418,0-8,3.582-8,8s3.582,8,8,8c4.418,0,8-3.582,8-8S12.918,16.5,8.5,16.5z M13.5,25.5h-10v-2h10V25.5z" transform="matrix(0.8 0 0 0.8 254 -10)"/></g></g><g transform="translate(25 104)" cursor="pointer"><text font-family="Arial" font-size="12px" font-style="normal" font-weight="normal" text-decoration="none" text-anchor="start" fill="rgb(255,255,255)" fill-opacity="1" dy="0.9166666666666666em" transform="translate(0 3)">Operations</text></g><rect fill="rgb(255,255,255)" x="1" y="124" width="270" height="32"/><g transform="translate(25 124)"><text font-family="Arial" font-size="12px" font-style="normal" font-weight="normal" text-decoration="none" text-anchor="start" fill="rgb(0,0,0)" fill-opacity="1" dy="0.9166666666666666em" transform="translate(0 1)">+ Gerente(String, String):</text></g><g transform="translate(25 140)"><text font-family="Arial" font-size="12px" font-style="normal" font-weight="normal" text-decoration="none" text-anchor="start" fill="rgb(0,0,0)" fill-opacity="1" dy="0.9166666666666666em" transform="translate(0 1)">+ mostrarDetalhesFuncionario(): void</text></g><rect fill="rgb(255,255,255)" x="1" y="156" width="270" height="0"/></g><g class="uml-node" transform="translate(32.75 269.5)"><rect fill="rgb(96,125,139)" stroke="rgb(96,125,139)" stroke-opacity="1" stroke-width="2" stroke-linecap="butt" stroke-linejoin="miter" stroke-miterlimit="10" fill-opacity="1" x="0" y="0" width="272" height="156" rx="0" ry="0"/><g transform="translate(0 0)"><text font-family="Arial" font-size="12px" font-style="normal" font-weight="normal" text-decoration="none" text-anchor="middle" fill="rgb(255,255,255)" fill-opacity="1" dy="0.9166666666666666em" transform="translate(136 18)">Vendedor</text></g><rect fill="rgb(255,255,255)" x="1" y="50" width="270" height="2"/><g transform="translate(0 52)" cursor="pointer"><rect fill="rgb(96,125,139)" stroke="none" fill-opacity="1" x="0" y="0" width="272" height="20" rx="0" ry="0"/><polygon fill="white" points="-5,-3.5 5,-3.5 0,6" transform="translate(12 10)" class="uml-button"/><g class="uml-button"><rect fill="rgb(96,125,139)" fill-opacity="1" x="235px" y="2px" width="16px" height="16px"/><path fill="white" d="M8.5,16.5c-4.418,0-8,3.582-8,8s3.582,8,8,8c4.418,0,8-3.582,8-8S12.918,16.5,8.5,16.5z M13.5,25.5h-4v4h-2v-4h-4v-2h4v-4h2v4h4V25.5z" transform="matrix(0.8 0 0 0.8 236 -10)"/></g><g class="uml-button disabled"><rect fill="rgb(96,125,139)" fill-opacity="1" x="253px" y="2px" width="16px" height="16px"/><path fill="white" fill-opacity="0.5" d="M8.5,16.5c-4.418,0-8,3.582-8,8s3.582,8,8,8c4.418,0,8-3.582,8-8S12.918,16.5,8.5,16.5z M13.5,25.5h-10v-2h10V25.5z" transform="matrix(0.8 0 0 0.8 254 -10)"/></g></g><g transform="translate(25 52)" cursor="pointer"><text font-family="Arial" font-size="12px" font-style="normal" font-weight="normal" text-decoration="none" text-anchor="start" fill="rgb(255,255,255)" fill-opacity="1" dy="0.9166666666666666em" transform="translate(0 3)">Attributes</text></g><rect fill="rgb(255,255,255)" x="1" y="72" width="270" height="32"/><g transform="translate(25 72)"><text font-family="Arial" font-size="12px" font-style="normal" font-weight="normal" text-decoration="none" text-anchor="start" fill="rgb(0,0,0)" fill-opacity="1" dy="0.9166666666666666em" transform="translate(0 1)">- cargo: String</text></g><g transform="translate(25 88)"><text font-family="Arial" font-size="12px" font-style="normal" font-weight="normal" text-decoration="none" text-anchor="start" fill="rgb(0,0,0)" fill-opacity="1" dy="0.9166666666666666em" transform="translate(0 1)">- nome: String</text></g><g transform="translate(0 104)" cursor="pointer"><rect fill="rgb(96,125,139)" stroke="none" fill-opacity="1" x="0" y="0" width="272" height="20" rx="0" ry="0"/><polygon fill="white" points="-5,-3.5 5,-3.5 0,6" transform="translate(12 10)" class="uml-button"/><g class="uml-button"><rect fill="rgb(96,125,139)" fill-opacity="1" x="235px" y="2px" width="16px" height="16px"/><path fill="white" d="M8.5,16.5c-4.418,0-8,3.582-8,8s3.582,8,8,8c4.418,0,8-3.582,8-8S12.918,16.5,8.5,16.5z M13.5,25.5h-4v4h-2v-4h-4v-2h4v-4h2v4h4V25.5z" transform="matrix(0.8 0 0 0.8 236 -10)"/></g><g class="uml-button disabled"><rect fill="rgb(96,125,139)" fill-opacity="1" x="253px" y="2px" width="16px" height="16px"/><path fill="white" fill-opacity="0.5" d="M8.5,16.5c-4.418,0-8,3.582-8,8s3.582,8,8,8c4.418,0,8-3.582,8-8S12.918,16.5,8.5,16.5z M13.5,25.5h-10v-2h10V25.5z" transform="matrix(0.8 0 0 0.8 254 -10)"/></g></g><g transform="translate(25 104)" cursor="pointer"><text font-family="Arial" font-size="12px" font-style="normal" font-weight="normal" text-decoration="none" text-anchor="start" fill="rgb(255,255,255)" fill-opacity="1" dy="0.9166666666666666em" transform="translate(0 3)">Operations</text></g><rect fill="rgb(255,255,255)" x="1" y="124" width="270" height="32"/><g transform="translate(25 124)"><text font-family="Arial" font-size="12px" font-style="normal" font-weight="normal" text-decoration="none" text-anchor="start" fill="rgb(0,0,0)" fill-opacity="1" dy="0.9166666666666666em" transform="translate(0 1)">+ Vendedor(String, String):</text></g><g transform="translate(25 140)"><text font-family="Arial" font-size="12px" font-style="normal" font-weight="normal" text-decoration="none" text-anchor="start" fill="rgb(0,0,0)" fill-opacity="1" dy="0.9166666666666666em" transform="translate(0 1)">+ mostrarDetalhesFuncionario(): void</text></g><rect fill="rgb(255,255,255)" x="1" y="156" width="270" height="0"/></g></g></g></svg>